<svg width="74" height="69" viewBox="0 0 74 69" fill="none" xmlns="http://www.w3.org/2000/svg">
<path d="M67.3734 39.813C68.4966 40.385 69.4362 41.2388 70.0914 42.2831C70.7466 43.3273 71.0927 44.5226 71.0927 45.7408C71.0927 46.959 70.7466 48.1543 70.0914 49.1985C69.4362 50.2427 68.4966 51.0966 67.3734 51.6686L37.4106 67.2707C32.5859 69.7856 26.6598 66.516 26.6598 61.3451V30.1386C26.6598 24.9655 32.5859 21.6982 37.4106 24.2086L67.3734 39.813Z" fill="#FFD600"/>
<path d="M8.258 50.8614C9.266 50.8614 10.12 51.3468 10.82 52.3174C11.52 53.2788 12.024 54.5528 12.332 56.1394C14.6373 56.8208 15.79 57.2268 15.79 57.3574C15.79 57.4881 15.6873 57.6421 15.482 57.8194C15.2673 57.9968 15.0573 58.0854 14.852 58.0854C14.6373 58.0854 14.0773 57.9501 13.172 57.6794C10.3813 56.8394 8.43533 56.4008 7.334 56.3634C7.12867 56.5874 6.942 56.6994 6.774 56.6994C6.54067 56.6994 6.31667 56.3821 6.102 55.7474C5.88733 55.1128 5.78 54.5061 5.78 53.9274C5.78 53.0314 6.00867 52.2988 6.466 51.7294C6.92333 51.1508 7.52067 50.8614 8.258 50.8614ZM8.342 52.0934C7.93133 52.0934 7.59533 52.2521 7.334 52.5694C7.06333 52.8774 6.928 53.2508 6.928 53.6894C6.928 54.1281 7.068 54.6601 7.348 55.2854C7.55333 55.1921 7.74467 55.1454 7.922 55.1454C8.44467 55.1454 9.55067 55.3741 11.24 55.8314C10.9413 54.7114 10.5307 53.8108 10.008 53.1294C9.476 52.4388 8.92067 52.0934 8.342 52.0934Z" fill="#FFD600"/>
<path d="M6.102 46.64C7.85667 46.64 10.134 47.004 12.934 47.732C14.838 48.1986 15.79 48.5253 15.79 48.712C15.79 48.8426 15.6873 48.9966 15.482 49.174C15.2767 49.342 15.118 49.426 15.006 49.426C14.894 49.426 14.3153 49.2906 13.27 49.02C12.2247 48.7493 10.9413 48.4786 9.42 48.208C7.88933 47.9373 6.51267 47.802 5.29 47.802C5.15933 47.802 5.066 47.7833 5.01 47.746C4.954 47.7086 4.926 47.6293 4.926 47.508C4.926 47.3866 5.06133 47.214 5.332 46.99C5.59333 46.7566 5.85 46.64 6.102 46.64Z" fill="#FFD600"/>
<path d="M8.846 41.2371C8.846 40.8171 9.06067 40.4298 9.49 40.0751C9.91 39.7205 10.2927 39.5431 10.638 39.5431C10.974 39.5431 11.3193 39.6598 11.674 39.8931C11.814 39.7811 11.9353 39.7251 12.038 39.7251C12.2993 39.7251 12.7473 39.7858 13.382 39.9071C14.0167 40.0191 14.432 40.0891 14.628 40.1171C14.824 40.1358 14.9827 40.1545 15.104 40.1731C15.216 40.1918 15.328 40.2151 15.44 40.2431C15.6733 40.2805 15.79 40.3645 15.79 40.4951C15.79 40.6631 15.6453 40.8031 15.356 40.9151C15.0573 41.0178 14.6747 41.0785 14.208 41.0971C15.2627 41.9278 15.79 42.6978 15.79 43.4071C15.79 43.8365 15.608 44.2611 15.244 44.6811C14.8707 45.0918 14.488 45.2971 14.096 45.2971C13.536 45.2971 12.8453 45.0918 12.024 44.6811C11.1933 44.2705 10.456 43.7385 9.812 43.0851C9.168 42.4318 8.846 41.8158 8.846 41.2371ZM11.31 40.5931C10.442 40.5931 10.008 40.7658 10.008 41.1111C10.008 41.4751 10.2693 41.8998 10.792 42.3851C11.3053 42.8705 11.8887 43.2811 12.542 43.6171C13.1953 43.9531 13.7133 44.1211 14.096 44.1211C14.2547 44.1211 14.3853 44.0558 14.488 43.9251C14.5813 43.7945 14.628 43.6405 14.628 43.4631C14.628 43.0245 14.334 42.5298 13.746 41.9791C13.1487 41.4285 12.4253 41.0458 11.576 40.8311C11.436 40.8031 11.352 40.7238 11.324 40.5931H11.31Z" fill="#FFD600"/>
<path d="M8.846 31.7256C8.846 31.5762 8.958 31.4176 9.182 31.2496C9.39667 31.0722 9.63933 30.9836 9.91 30.9836C10.0967 30.9836 10.7313 31.1749 11.814 31.5576C12.8967 31.9402 13.634 32.2016 14.026 32.3416C14.4087 32.4722 14.922 32.6542 15.566 32.8876C16.2007 33.1116 16.8213 33.3309 17.428 33.5456C18.7627 34.0122 19.43 34.7122 19.43 35.6456C19.43 36.1776 19.2667 36.6862 18.94 37.1716C18.6227 37.6569 18.2913 37.8996 17.946 37.8996C17.8153 37.8996 17.6707 37.8389 17.512 37.7176C17.3533 37.6056 17.274 37.5076 17.274 37.4236C17.274 37.3396 17.3767 37.2042 17.582 37.0176C18.198 36.4762 18.506 36.0142 18.506 35.6316C18.506 35.3422 18.2493 35.0809 17.736 34.8476C17.232 34.6142 16.658 34.3949 16.014 34.1896C15.3793 33.9749 15.0293 33.8582 14.964 33.8396C14.8987 33.8116 14.8147 33.7836 14.712 33.7556C14.6093 33.7182 14.516 33.6856 14.432 33.6576C15.3373 34.3202 15.79 34.9736 15.79 35.6176C15.79 36.0096 15.608 36.3736 15.244 36.7096C14.88 37.0362 14.4507 37.1996 13.956 37.1996C13.4613 37.1996 12.794 37.0782 11.954 36.8356C11.114 36.5929 10.386 36.3082 9.77 35.9816C9.154 35.6549 8.846 35.3889 8.846 35.1836C8.846 35.0156 8.92533 34.8616 9.084 34.7216C9.23333 34.5722 9.38733 34.4976 9.546 34.4976C9.70467 34.4976 10.036 34.6189 10.54 34.8616C12.0893 35.6176 13.2933 35.9956 14.152 35.9956C14.3013 35.9956 14.4273 35.9489 14.53 35.8556C14.6233 35.7622 14.67 35.6502 14.67 35.5196C14.67 35.1836 14.3713 34.7822 13.774 34.3156C13.1767 33.8489 12.4673 33.4196 11.646 33.0276C10.9553 32.7009 10.0733 32.3602 9 32.0056C8.89733 31.9682 8.846 31.8749 8.846 31.7256Z" fill="#FFD600"/>
<path d="M41.6289 11.8355C41.8869 11.9441 42.0389 12.2207 42.0847 12.6653C42.1427 13.1049 42.0757 13.5527 41.8838 14.0086C41.6955 14.4559 41.3676 15.0065 40.9 15.6603C40.441 16.3177 39.9515 16.8914 39.4314 17.3813C38.9112 17.8713 38.5221 18.0619 38.2641 17.9533C38.0834 17.8773 38.042 17.7231 38.1397 17.4908C38.2411 17.25 38.6317 16.7309 39.3116 15.9335C40.0038 15.1312 40.4639 14.459 40.692 13.9171C40.9237 13.3665 40.9536 13.055 40.7815 12.9826C40.5664 12.8921 40.2373 12.9764 39.7941 13.2354C39.3595 13.498 38.8709 13.829 38.3281 14.2284C37.7853 14.6278 37.492 14.8436 37.4481 14.8757C37.4078 14.8993 37.3516 14.9364 37.2797 14.9871C37.2163 15.0415 37.1425 15.0965 37.0583 15.1522C36.9827 15.2115 36.7645 15.3931 36.4037 15.6969C36.0515 16.0043 35.7552 16.2391 35.5149 16.4012C35.2781 16.5547 35.1038 16.608 34.992 16.5609C34.8887 16.5174 34.8016 16.3997 34.7305 16.2078C34.6594 16.0158 34.6492 15.8597 34.6999 15.7392C34.7505 15.6188 34.933 15.4019 35.2471 15.0886C36.1651 14.1585 36.8269 13.2118 37.2324 12.2483C37.3085 12.0677 37.3331 11.9008 37.3064 11.7478C37.2833 11.5862 37.2244 11.4855 37.1298 11.4456C37.0352 11.4058 36.9181 11.4072 36.7787 11.4498C36.6429 11.4837 36.4523 11.5757 36.2069 11.7255C35.9652 11.8668 35.7443 12.0068 35.5442 12.1453C35.3441 12.2839 35.0342 12.5028 34.6146 12.8021C34.2072 13.0965 33.8973 13.3154 33.685 13.4589C33.4849 13.5975 33.2488 13.7614 32.9767 13.9507C32.7083 14.1314 32.4978 14.2706 32.3452 14.3684C32.2013 14.4699 32.039 14.5788 31.8584 14.6951C31.4921 14.9157 31.2531 15.0024 31.1413 14.9553C31.038 14.9119 30.9402 14.7593 30.8478 14.4977C30.7591 14.2274 30.7346 14.0449 30.7744 13.9503C30.8179 13.8471 30.8876 13.7296 30.9835 13.5978C31.0795 13.4661 31.1737 13.3386 31.266 13.2155C31.3669 13.0959 31.5122 12.9191 31.7019 12.685C31.9038 12.446 32.1324 12.1675 32.3877 11.8496C32.6552 11.5268 32.9487 11.058 33.2683 10.4431C33.6001 9.82328 33.8404 9.37255 33.9893 9.09093C34.1418 8.80071 34.2783 8.68094 34.3988 8.73163C34.588 8.81129 34.7313 8.98806 34.8287 9.26195C34.9347 9.53946 34.946 9.77715 34.8628 9.975C34.5441 10.732 33.7352 11.8599 32.4361 13.3586C34.1599 11.9576 35.2172 11.1419 35.6079 10.9114C35.9985 10.6809 36.3276 10.5004 36.5952 10.37C37.0864 10.1413 37.504 10.0994 37.8481 10.2442C38.0546 10.3311 38.2237 10.6149 38.3555 11.0957C38.4995 11.5715 38.4955 11.9901 38.3435 12.3514C38.1914 12.7127 37.9515 13.1383 37.6238 13.6282C39.468 12.0855 40.803 11.4879 41.6289 11.8355Z" fill="#FFD600"/>
<path d="M50.8164 17.5047C50.9208 17.3917 51.0028 17.3195 51.0624 17.2883C51.1221 17.2571 51.2051 17.2706 51.3115 17.3288C51.4262 17.3915 51.503 17.5719 51.5422 17.8699C51.5895 18.1724 51.5594 18.4219 51.4519 18.6184C51.3936 18.7248 50.8686 19.2568 49.8767 20.2142C48.8849 21.1717 48.1048 21.9365 47.5365 22.5086C47.2501 22.7988 47.0169 22.8946 46.8367 22.796C46.7303 22.7378 46.6648 22.6435 46.6404 22.5131C46.616 22.3827 46.6687 22.1988 46.7986 21.9613C46.9285 21.7239 47.2579 21.3455 47.7866 20.8262C47.1381 21.1949 46.5147 21.4496 45.9164 21.5904C45.3181 21.7312 44.8511 21.7098 44.5154 21.5262C44.1878 21.347 43.9618 21.0212 43.8372 20.5488C43.7126 20.0764 43.7399 19.6764 43.9191 19.3489C44.3446 18.571 45.1006 17.7239 46.187 16.8075C47.2861 15.8874 47.9871 15.5102 48.2901 15.676C48.4375 15.7566 48.5263 15.8956 48.5566 16.0931C48.5996 16.2868 48.574 16.4696 48.48 16.6416C48.4396 16.7153 48.1835 16.9209 47.7116 17.2585C47.2442 17.5879 46.7319 17.9992 46.1749 18.4924C45.6224 18.9774 45.2207 19.4492 44.9698 19.9077C44.8982 20.0387 44.8786 20.1717 44.9113 20.3065C44.9483 20.4332 45.0242 20.5279 45.1388 20.5906C45.45 20.7608 45.9685 20.6881 46.6944 20.3724C47.4285 20.0612 48.1709 19.6375 48.9217 19.1013C49.6724 18.5652 50.304 18.033 50.8164 17.5047Z" fill="#FFD600"/>
<path d="M57.0522 20.4691C57.3306 20.6214 57.5075 20.9203 57.583 21.3659C57.6629 21.8032 57.6401 22.1365 57.5147 22.3658C57.4386 22.505 57.335 22.5388 57.204 22.4671C57.1139 22.4178 57.0128 22.2721 56.9006 22.0299C56.7929 21.7794 56.6408 21.6005 56.4443 21.493C56.2478 21.3855 55.8739 21.3299 55.3227 21.3263C54.7797 21.3271 54.4387 21.4544 54.2999 21.7083C54.1969 21.8966 54.3966 22.4261 54.8991 23.2967C55.0871 23.6336 55.2174 24.0081 55.2899 24.4201C55.375 24.8284 55.328 25.1963 55.1489 25.5238C54.9742 25.8432 54.5766 26.0352 53.956 26.1C53.3481 26.1611 52.7453 26.0282 52.1475 25.7012C51.558 25.3787 51.1123 24.9487 50.8105 24.4113C50.517 23.8784 50.4396 23.485 50.5785 23.2311C50.6367 23.1247 50.706 23.0562 50.7865 23.0258C50.8797 22.9916 50.9672 22.997 51.0491 23.0418C51.131 23.0865 51.2165 23.2025 51.3056 23.3896C51.5731 23.9508 51.9443 24.3613 52.4192 24.6211C52.9023 24.8854 53.2795 25.0225 53.5506 25.0325C53.8262 25.0343 54.0133 24.9452 54.1118 24.765C54.2148 24.5767 54.2036 24.3152 54.0781 23.9806C53.9571 23.6378 53.7981 23.3062 53.6011 22.9856C53.4123 22.6696 53.2641 22.3279 53.1565 21.9605C53.049 21.5932 53.0624 21.2867 53.1968 21.041C53.4342 20.607 54.0203 20.3426 54.9553 20.2476C55.9029 20.1489 56.6019 20.2228 57.0522 20.4691Z" fill="#FFD600"/>
<path d="M61.8724 20.8399C61.962 20.6762 62.1126 20.5564 62.3242 20.4807C62.5359 20.405 62.7072 20.403 62.8382 20.4746C62.9774 20.5508 63.0494 20.8082 63.054 21.247C63.0632 21.6775 63.0073 22.0033 62.8864 22.2244C62.8416 22.3063 62.7644 22.3598 62.6549 22.385C62.5454 22.4102 62.4497 22.4004 62.3678 22.3556C62.1713 22.2481 62.0151 22.0085 61.8994 21.6366C61.7918 21.2693 61.7828 21.0037 61.8724 20.8399ZM60.8569 22.5504C61.0125 22.6355 61.1084 22.8103 61.1446 23.0748C61.1807 23.3393 61.1496 23.5616 61.051 23.7417C60.9525 23.9219 60.5381 24.3974 59.8079 25.1682C59.0822 25.9308 58.2347 26.7704 57.2652 27.6869C56.902 28.0201 56.614 28.1286 56.4011 28.0121C56.2865 27.9494 56.2129 27.8506 56.1803 27.7157C56.1521 27.5727 56.1694 27.4438 56.2321 27.3292C56.2993 27.2064 56.431 27.0337 56.6272 26.8112C56.836 26.5851 57.1142 26.2904 57.4618 25.9273C57.822 25.5605 58.1087 25.26 58.3221 25.0256C58.5436 24.7957 58.783 24.533 59.0403 24.2376C59.3022 23.934 59.5095 23.6911 59.6625 23.5088C59.8281 23.3228 59.9977 23.139 60.1715 22.9574C60.5056 22.6189 60.7341 22.4833 60.8569 22.5504Z" fill="#FFD600"/>
<path d="M61.9585 31.0681C61.4836 30.8083 61.1381 30.38 60.9221 29.783C60.7106 29.1779 60.7436 28.6216 61.0213 28.1139C61.3035 27.598 61.8002 27.0984 62.5114 26.6151C63.2226 26.1318 63.9784 25.8005 64.7786 25.6212C65.587 25.4464 66.2491 25.5001 66.765 25.7823C67.1007 25.966 67.3126 26.2787 67.4007 26.7205C67.4888 27.1623 67.4702 27.4979 67.3447 27.7271C67.3089 27.7927 67.2571 27.8388 67.1893 27.8655C67.1259 27.8841 67.0533 27.8709 66.9714 27.8261C66.8977 27.7858 66.8029 27.6382 66.6871 27.3833C66.5712 27.1284 66.4354 26.9584 66.2799 26.8733C65.8377 26.6315 65.1091 26.7382 64.094 27.1936C63.0789 27.649 62.4123 28.1673 62.0943 28.7487C61.9555 29.0026 61.9235 29.2457 61.9985 29.4782C62.0816 29.7152 62.2992 29.93 62.6513 30.1226C63.0116 30.3197 63.3615 30.4579 63.7011 30.5373C64.0533 30.6129 64.3337 30.6546 64.5423 30.6623C64.7553 30.6618 64.9069 30.6862 64.9969 30.7355C65.1525 30.8206 65.1878 30.9409 65.1027 31.0965C64.9728 31.334 64.5339 31.4556 63.786 31.4614C63.0508 31.4635 62.4417 31.3324 61.9585 31.0681Z" fill="#FFD600"/>
</svg>
